HIERARCHY
ROOT hip
{
  OFFSET 0 0 0
  CHANNELS 6 Xposition Yposition Zposition Zrotation Yrotation Xrotation
  JOINT abdomen
  {
    OFFSET 0 20.6881 -0.73152
    CHANNELS 3 Zrotation Xrotation Yrotation
    JOINT chest
    {
      OFFSET 0 11.7043 -0.48768
      CHANNELS 3 Zrotation Xrotation Yrotation
      JOINT neck
      {
        OFFSET 0 22.1894 -2.19456
        CHANNELS 3 Zrotation Xrotation Yrotation
        JOINT head
        {
          OFFSET -0.24384 7.07133 1.2192
          CHANNELS 3 Zrotation Xrotation Yrotation
          JOINT leftEye
          {
            OFFSET 4.14528 8.04674 8.04672
            CHANNELS 3 Zrotation Xrotation Yrotation
            End Site
            {
              OFFSET 1 0 0
            }
          }
          JOINT rightEye
          {
            OFFSET -3.6576 8.04674 8.04672
            CHANNELS 3 Zrotation Xrotation Yrotation
            End Site
            {
              OFFSET 1 0 0
            }
          }
        }
      }
      JOINT rCollar
      {
        OFFSET -2.68224 19.2634 -4.8768
        CHANNELS 3 Zrotation Xrotation Yrotation
        JOINT rShldr
        {
          OFFSET -8.77824 -1.95073 1.46304
          CHANNELS 3 Zrotation Xrotation Yrotation
          JOINT rForeArm
          {
            OFFSET -28.1742 -1.7115 0.48768
            CHANNELS 3 Zrotation Xrotation Yrotation
            JOINT rHand
            {
              OFFSET -22.5879 0.773209 7.07136
              CHANNELS 3 Zrotation Xrotation Yrotation
              JOINT rThumb1
              {
                OFFSET -1.2192 -0.487915 3.41376
                CHANNELS 3 Zrotation Xrotation Yrotation
                JOINT rThumb2
                {
                  OFFSET -3.37035 -0.52449 3.41376
                  CHANNELS 3 Zrotation Xrotation Yrotation
                  End Site
                  {
                    OFFSET -1.78271 -1.18214 1.43049
                  }
                }
              }
              JOINT rIndex1
              {
                OFFSET -7.75947 0.938293 5.60832
                CHANNELS 3 Zrotation Xrotation Yrotation
                JOINT rIndex2
                {
                  OFFSET -2.54057 -0.884171 1.56538
                  CHANNELS 3 Zrotation Xrotation Yrotation
                  End Site
                  {
                    OFFSET -1.62519 -0.234802 1.16502
                  }
                }
              }
              JOINT rMid1
              {
                OFFSET -8.24714 1.18213 3.41376
                CHANNELS 3 Zrotation Xrotation Yrotation
                JOINT rMid2
                {
                  OFFSET -3.10165 -0.590103 1.0647
                  CHANNELS 3 Zrotation Xrotation Yrotation
                  End Site
                  {
                    OFFSET -2.48547 -0.328903 0.83742
                  }
                }
              }
              JOINT rRing1
              {
                OFFSET -8.82822 0.546677 1.51678
                CHANNELS 3 Zrotation Xrotation Yrotation
                JOINT rRing2
                {
                  OFFSET -2.60934 -0.819778 -0.0198488
                  CHANNELS 3 Zrotation Xrotation Yrotation
                  End Site
                  {
                    OFFSET -2.33842 -0.294052 0.168128
                  }
                }
              }
              JOINT rPinky1
              {
                OFFSET -8.27202 -0.0477905 -0.4584
                CHANNELS 3 Zrotation Xrotation Yrotation
                JOINT rPinky2
                {
                  OFFSET -1.82734 -0.647385 -0.700984
                  CHANNELS 3 Zrotation Xrotation Yrotation
                  End Site
                  {
                    OFFSET -1.69225 -0.51767 -0.607171
                  }
                }
              }
            }
          }
        }
      }
      JOINT lCollar
      {
        OFFSET 2.68224 19.2634 -4.8768
        CHANNELS 3 Zrotation Xrotation Yrotation
        JOINT lShldr
        {
          OFFSET 8.77824 -1.95073 1.46304
          CHANNELS 3 Zrotation Xrotation Yrotation
          JOINT lForeArm
          {
            OFFSET 28.1742 -1.7115 0.48768
            CHANNELS 3 Zrotation Xrotation Yrotation
            JOINT lHand
            {
              OFFSET 22.5879 0.773209 7.07136
              CHANNELS 3 Zrotation Xrotation Yrotation
              JOINT lThumb1
              {
                OFFSET 1.2192 -0.487915 3.41376
                CHANNELS 3 Zrotation Xrotation Yrotation
                JOINT lThumb2
                {
                  OFFSET 3.37035 -0.52449 3.41376
                  CHANNELS 3 Zrotation Xrotation Yrotation
                  End Site
                  {
                    OFFSET 1.78271 -1.18214 1.43049
                  }
                }
              }
              JOINT lIndex1
              {
                OFFSET 7.75947 0.938293 5.60832
                CHANNELS 3 Zrotation Xrotation Yrotation
                JOINT lIndex2
                {
                  OFFSET 2.54057 -0.884171 1.56538
                  CHANNELS 3 Zrotation Xrotation Yrotation
                  End Site
                  {
                    OFFSET 1.62519 -0.234802 1.16502
                  }
                }
              }
              JOINT lMid1
              {
                OFFSET 8.24714 1.18213 3.41376
                CHANNELS 3 Zrotation Xrotation Yrotation
                JOINT lMid2
                {
                  OFFSET 3.10165 -0.590103 1.0647
                  CHANNELS 3 Zrotation Xrotation Yrotation
                  End Site
                  {
                    OFFSET 2.48547 -0.328903 0.83742
                  }
                }
              }
              JOINT lRing1
              {
                OFFSET 8.82822 0.546677 1.51678
                CHANNELS 3 Zrotation Xrotation Yrotation
                JOINT lRing2
                {
                  OFFSET 2.60934 -0.819778 -0.0198488
                  CHANNELS 3 Zrotation Xrotation Yrotation
                  End Site
                  {
                    OFFSET 2.33842 -0.294052 0.168128
                  }
                }
              }
              JOINT lPinky1
              {
                OFFSET 8.27202 -0.0477905 -0.4584
                CHANNELS 3 Zrotation Xrotation Yrotation
                JOINT lPinky2
                {
                  OFFSET 1.82734 -0.647385 -0.700984
                  CHANNELS 3 Zrotation Xrotation Yrotation
                  End Site
                  {
                    OFFSET 1.69225 -0.51767 -0.607171
                  }
                }
              }
            }
          }
        }
      }
    }
  }
  JOINT rButtock
  {
    OFFSET -8.77824 4.35084 1.2192
    CHANNELS 3 Zrotation Xrotation Yrotation
    JOINT rThigh
    {
      OFFSET 0 -1.70687 -2.19456
      CHANNELS 3 Zrotation Xrotation Yrotation
      JOINT rShin
      {
        OFFSET 0 -36.8199 0.73152
        CHANNELS 3 Zrotation Xrotation Yrotation
        JOINT rFoot
        {
          OFFSET 0.73152 -45.1104 -5.12064
          CHANNELS 3 Zrotation Xrotation Yrotation
          End Site
          {
            OFFSET -1.1221 -3.69964 12.103
          }
        }
      }
    }
  }
  JOINT lButtock
  {
    OFFSET 8.77824 4.35084 1.2192
    CHANNELS 3 Zrotation Xrotation Yrotation
    JOINT lThigh
    {
      OFFSET 0 -1.70687 -2.19456
      CHANNELS 3 Zrotation Xrotation Yrotation
      JOINT lShin
      {
        OFFSET 0 -36.8199 0.73152
        CHANNELS 3 Zrotation Xrotation Yrotation
        JOINT lFoot
        {
          OFFSET -0.73152 -45.1104 -5.12064
          CHANNELS 3 Zrotation Xrotation Yrotation
          End Site
          {
            OFFSET 1.1221 -3.69964 12.103
          }
        }
      }
    }
  }
}
MOTION
Frames: 9
Frame Time:	0.06666666
-48.0875 85.608 10.0653 1.5059 3.7981 0.8676 -2.13753 7.0365 -2.786 4.57127 -3.71342 -0.67438 -9.16484 -2.7687 -3.64356 8.15685 0.853888 -4.29358 -0.0 0.0 0.0 -0.0 0.0 0.0 -5.85987e-14 1.66948e-14 -2.02363e-13 79.1647 13.4927 3.33137 -14.7312 -7.55973 27.037 -0.0499283 6.3638 0.898106 1.02743e-09 -1.40443e-09 -8.95962e-11 1.77388e-09 -2.42503e-09 -1.62296e-10 1.02743e-09 -1.40443e-09 -8.96058e-11 7.73091 5.47488 0.417314 1.02743e-09 -1.40443e-09 -8.95962e-11 2.90554 0.965183 0.102902 1.02744e-09 -1.40443e-09 -8.95946e-11 10.2786 0.731801 0.0259123 1.02743e-09 -1.40443e-09 -8.9593e-11 2.22167 -0.733487 -0.20892 -5.8887e-14 1.66991e-14 -2.0276e-13 -78.5893 26.3506 -8.0436 15.6471 -8.36349 -28.9312 0.010726 2.95563 -0.415759 9.18372e-10 1.86668e-09 4.732e-10 1.58804e-09 3.22609e-09 8.15315e-10 9.1837e-10 1.86668e-09 4.73206e-10 -7.73091 5.47488 -0.417314 9.18378e-10 1.86669e-09 4.73209e-10 -2.90554 0.965183 -0.102902 9.1837e-10 1.86669e-09 4.73202e-10 -10.2786 0.731801 -0.0259123 9.18379e-10 1.86669e-09 4.73184e-10 -2.22167 -0.733487 0.20892 -2.03217e-16 0.0 -3.88251e-19 -3.65859 -31.1809 9.20306 -0.178813 29.4059 0.387293 -0.0257994 -4.93211 2.8527 2.03217e-16 0.0 3.88251e-19 -8.75505 -10.8135 -4.07461 0.127409 26.7331 -0.446318 -2.28597 -11.6932 -9.96564
-47.9723 85.5677 11.3569 1.3543 4.9174 0.7009 -1.64555 7.09958 -2.65999 4.58837 -3.40525 -0.636114 -9.19183 -2.32955 -3.812 8.19312 0.126749 -4.62962 -0.0 0.0 0.0 -0.0 0.0 0.0 -1.43886e-14 1.57515e-14 -9.88643e-15 79.187 13.113 3.34137 -14.8232 -7.63823 27.2256 -0.0539872 6.61743 0.934217 -2.84902e-10 1.00544e-09 1.32567e-11 -4.9273e-10 1.73983e-09 2.61963e-11 -2.84901e-10 1.00544e-09 1.32414e-11 7.73091 5.47488 0.417314 -2.84901e-10 1.00544e-09 1.32514e-11 2.90554 0.965183 0.102902 -2.84896e-10 1.00544e-09 1.32518e-11 10.2786 0.731801 0.0259123 -2.84903e-10 1.00544e-09 1.32556e-11 2.22167 -0.733487 -0.20892 -1.45573e-14 1.57549e-14 -1.0225e-14 -78.3869 26.8376 -8.40024 15.936 -8.62733 -29.5387 0.011995 3.11648 -0.438435 -2.32301e-10 -1.50987e-10 1.03368e-10 -4.01844e-10 -2.60279e-10 1.80251e-10 -2.32309e-10 -1.50983e-10 1.03376e-10 -7.73091 5.47488 -0.417314 -2.32301e-10 -1.50981e-10 1.03373e-10 -2.90554 0.965183 -0.102902 -2.32307e-10 -1.50981e-10 1.03365e-10 -10.2786 0.731801 -0.0259123 -2.32296e-10 -1.50978e-10 1.03356e-10 -2.22167 -0.733487 0.20892 -2.03217e-16 0.0 -3.88251e-19 -3.16805 -30.607 11.6226 -0.138498 25.8719 0.286432 0.638997 -5.65496 6.62619 2.03217e-16 0.0 3.88251e-19 -8.34565 -9.9976 -4.55764 0.13724 26.7192 -0.414908 -2.53148 -12.1422 -10.3991
-47.9093 85.5537 12.4365 1.0639 5.6195 0.7972 -1.20388 7.20827 -2.51461 4.50327 -3.07577 -0.598139 -9.22899 -2.00413 -3.99064 8.23672 -0.382182 -4.97938 -0.0 0.0 0.0 -0.0 0.0 0.0 3.51355e-14 8.74536e-15 1.72247e-13 79.2433 12.7023 3.38944 -14.8665 -7.67544 27.3145 -0.0625545 7.11847 1.00567 -1.40978e-09 2.89327e-09 1.68534e-10 -2.43486e-09 5.0013e-09 3.03609e-10 -1.40978e-09 2.89327e-09 1.68515e-10 7.73091 5.47488 0.417314 -1.40977e-09 2.89327e-09 1.68525e-10 2.90554 0.965183 0.102902 -1.40977e-09 2.89327e-09 1.68525e-10 10.2786 0.731801 0.0259123 -1.40978e-09 2.89327e-09 1.68531e-10 2.22167 -0.733487 -0.20892 3.50875e-14 8.74769e-15 1.71998e-13 -78.2323 27.2119 -8.74122 16.1639 -8.84034 -30.0193 0.0152287 3.52095 -0.495468 -1.21074e-09 -2.00434e-09 -2.68862e-10 -2.09377e-09 -3.46296e-09 -4.59798e-10 -1.21075e-09 -2.00434e-09 -2.68852e-10 -7.73091 5.47488 -0.417314 -1.21074e-09 -2.00434e-09 -2.68862e-10 -2.90554 0.965183 -0.102902 -1.21075e-09 -2.00434e-09 -2.68869e-10 -10.2786 0.731801 -0.0259123 -1.21074e-09 -2.00433e-09 -2.68868e-10 -2.22167 -0.733487 0.20892 -2.03217e-16 0.0 -3.88251e-19 -2.96816 -30.1074 13.1247 -0.114026 23.3325 0.211583 1.2836 -5.65089 10.5365 2.03217e-16 0.0 3.88251e-19 -8.04497 -9.23446 -5.16506 0.146607 26.9076 -0.390443 -2.73844 -12.5126 -10.7484
-47.7596 85.5288 13.738 1.0248 7.2723 0.6622 -0.816554 7.50476 -2.75823 4.2665 -2.724 -0.67686 -9.39413 -2.53858 -4.13581 8.6373 0.0521339 -5.16174 -0.0 0.0 0.0 -0.0 0.0 0.0 2.8913e-14 -1.90363e-14 6.29713e-14 79.3562 12.2935 3.74267 -14.7368 -7.56503 27.048 -0.0666612 7.34303 1.03775 -3.96409e-10 4.76356e-10 4.26718e-10 -6.81468e-10 8.20248e-10 7.41518e-10 -3.96406e-10 4.76362e-10 4.26705e-10 7.73091 5.47488 0.417314 -3.96406e-10 4.76356e-10 4.2671e-10 2.90554 0.965183 0.102902 -3.96399e-10 4.76359e-10 4.26713e-10 10.2786 0.731801 0.0259123 -3.96411e-10 4.76357e-10 4.26718e-10 2.22167 -0.733487 -0.20892 2.88638e-14 -1.90312e-14 6.2788e-14 -77.8991 27.3581 -9.33114 16.3344 -9.00102 -30.3834 0.0189998 3.89252 -0.54793 -3.75775e-10 -9.95591e-10 -2.51198e-10 -6.5058e-10 -1.72158e-09 -4.32802e-10 -3.75783e-10 -9.95589e-10 -2.51188e-10 -7.73091 5.47488 -0.417314 -3.75778e-10 -9.95591e-10 -2.51196e-10 -2.90554 0.965183 -0.102902 -3.75785e-10 -9.95591e-10 -2.51201e-10 -10.2786 0.731801 -0.0259123 -3.75774e-10 -9.95587e-10 -2.51201e-10 -2.22167 -0.733487 0.20892 -2.03217e-16 0.0 -3.88251e-19 -3.15506 -29.6958 12.9495 -0.103156 22.1571 0.181151 1.29794 -3.43353 13.9374 2.03217e-16 0.0 3.88251e-19 -7.79329 -8.47691 -5.96894 0.152776 27.1528 -0.380381 -2.98507 -12.5075 -11.5064
-47.648 85.4979 14.9047 0.8111 8.8878 0.5487 -0.634591 7.79468 -3.04884 4.06241 -2.608 -0.763959 -9.5125 -3.02433 -4.21158 8.95214 0.706269 -5.24362 -0.0 0.0 0.0 -0.0 0.0 0.0 8.49465e-15 -4.37365e-14 -6.19214e-14 79.5044 11.9116 3.87696 -14.5537 -7.41004 26.6749 -0.0706024 7.55937 1.06867 6.79253e-10 -1.9866e-09 6.33907e-10 1.17893e-09 -3.43993e-09 1.09089e-09 6.79258e-10 -1.98659e-09 6.339e-10 7.73091 5.47488 0.417314 6.79253e-10 -1.9866e-09 6.33904e-10 2.90554 0.965183 0.102902 6.79266e-10 -1.9866e-09 6.33908e-10 10.2786 0.731801 0.0259123 6.79248e-10 -1.9866e-09 6.33913e-10 2.22167 -0.733487 -0.20892 8.40256e-15 -4.37295e-14 -6.20705e-14 -77.7629 27.5066 -9.66107 16.5042 -9.16419 -30.7443 0.0187262 3.90368 -0.549485 5.18349e-10 1.67994e-10 -1.49295e-10 8.94947e-10 2.87169e-10 -2.60519e-10 5.18347e-10 1.67993e-10 -1.49286e-10 -7.73091 5.47488 -0.417314 5.1835e-10 1.67994e-10 -1.49292e-10 -2.90554 0.965183 -0.102902 5.18342e-10 1.67995e-10 -1.49294e-10 -10.2786 0.731801 -0.0259123 5.18351e-10 1.67998e-10 -1.49298e-10 -2.22167 -0.733487 0.20892 -2.03217e-16 0.0 -3.88251e-19 -3.54179 -29.3608 12.2283 -0.0997161 21.9927 0.17833 0.824243 -0.703779 16.5715 2.03217e-16 0.0 3.88251e-19 -7.68733 -7.84732 -6.8285 0.158542 27.5975 -0.382195 -3.2138 -12.3343 -12.3508
-47.4638 85.4499 16.1526 0.9054 10.6533 0.4592 -0.945343 7.9216 -3.10324 4.10645 -3.23321 -0.761011 -9.30714 -2.51582 -4.11978 8.62204 0.985835 -5.21464 -0.0 0.0 0.0 -0.0 0.0 0.0 -5.06391e-15 -4.05538e-14 6.54747e-14 79.6722 11.5701 3.10247 -14.3942 -7.27715 26.3503 -0.0788237 7.9882 1.13006 -3.12041e-10 -9.23168e-11 6.5996e-10 -5.34616e-10 -1.65892e-10 1.14457e-09 -3.12035e-10 -9.23128e-11 6.5995e-10 7.73091 5.47488 0.417314 -3.12035e-10 -9.23177e-11 6.59958e-10 2.90554 0.965183 0.102902 -3.12031e-10 -9.23165e-11 6.5996e-10 10.2786 0.731801 0.0259123 -3.12051e-10 -9.23155e-11 6.59969e-10 2.22167 -0.733487 -0.20892 -5.21422e-15 -4.05515e-14 6.52759e-14 -78.301 27.9224 -9.05582 16.7573 -9.41115 -31.2862 0.00821464 2.81604 -0.396011 -3.31716e-10 -1.28814e-09 -1.98516e-10 -5.752e-10 -2.23057e-09 -3.43322e-10 -3.31718e-10 -1.28814e-09 -1.98507e-10 -7.73091 5.47488 -0.417314 -3.31715e-10 -1.28814e-09 -1.98518e-10 -2.90554 0.965183 -0.102902 -3.31718e-10 -1.28814e-09 -1.98518e-10 -10.2786 0.731801 -0.0259123 -3.31712e-10 -1.28814e-09 -1.98527e-10 -2.22167 -0.733487 0.20892 -2.03217e-16 0.0 -3.88251e-19 -4.09473 -29.1792 11.8969 -0.106438 22.7803 0.201965 0.251675 1.43859 17.6378 2.03217e-16 0.0 3.88251e-19 -7.9407 -7.45296 -7.6341 0.165489 28.33 -0.398302 -3.39319 -12.1646 -13.07
-47.2244 85.3501 17.3508 1.3607 12.4923 0.687 -1.36605 7.91614 -3.14997 4.24839 -3.85647 -0.755221 -9.18414 -1.87143 -4.00004 8.31229 1.2317 -5.12279 -0.0 0.0 0.0 -0.0 0.0 0.0 -1.13384e-14 -2.70343e-14 1.87752e-13 79.8165 11.3324 2.19351 -14.2699 -7.17429 26.0987 -0.0841755 8.24827 1.16737 -1.25963e-09 1.9428e-09 4.84087e-10 -2.17377e-09 3.35339e-09 8.48464e-10 -1.25963e-09 1.9428e-09 4.84074e-10 7.73091 5.47488 0.417314 -1.25962e-09 1.9428e-09 4.84087e-10 2.90554 0.965183 0.102902 -1.25963e-09 1.9428e-09 4.84086e-10 10.2786 0.731801 0.0259123 -1.25965e-09 1.9428e-09 4.84099e-10 2.22167 -0.733487 -0.20892 -1.15226e-14 -2.70365e-14 1.87504e-13 -79.0022 28.3933 -8.2716 16.9989 -9.64939 -31.8111 0.00308448 1.58561 -0.222901 -1.13746e-09 -2.46433e-09 -2.17451e-10 -1.96814e-09 -4.26282e-09 -3.7335e-10 -1.13746e-09 -2.46434e-09 -2.17442e-10 -7.73091 5.47488 -0.417314 -1.13746e-09 -2.46434e-09 -2.17458e-10 -2.90554 0.965183 -0.102902 -1.13746e-09 -2.46434e-09 -2.17456e-10 -10.2786 0.731801 -0.0259123 -1.13746e-09 -2.46433e-09 -2.17467e-10 -2.22167 -0.733487 0.20892 -2.03217e-16 0.0 -3.88251e-19 -4.59119 -28.8782 11.7074 -0.118136 24.0068 0.235281 -0.222976 3.04597 18.0877 2.03217e-16 0.0 3.88251e-19 -8.19696 -7.29026 -8.36989 0.176081 29.368 -0.42223 -3.53936 -11.8142 -13.8304
-47.0349 85.27 18.647 1.657 14.7705 0.7307 -1.62308 7.72603 -3.40987 4.41991 -3.73726 -0.831547 -9.67432 -1.93808 -3.99595 8.87184 1.93076 -4.99915 -0.0 0.0 0.0 -0.0 0.0 0.0 5.27284e-15 -1.08349e-14 7.56345e-14 79.8917 11.3459 1.84227 -14.2341 -7.14482 26.0267 -0.0763706 7.87002 1.11311 -9.34416e-11 1.90922e-10 -1.45526e-10 -1.61251e-10 3.29319e-10 -2.511e-10 -9.3434e-11 1.90917e-10 -1.45536e-10 7.73091 5.47488 0.417314 -9.34301e-11 1.90909e-10 -1.45524e-10 2.90554 0.965183 0.102902 -9.34392e-11 1.90913e-10 -1.45526e-10 10.2786 0.731801 0.0259123 -9.34546e-11 1.90917e-10 -1.45512e-10 2.22167 -0.733487 -0.20892 5.16369e-15 -1.08336e-14 7.54357e-14 -79.435 28.7338 -7.94687 17.1614 -9.81242 -32.1653 0.00168921 1.02382 -0.143922 -1.50073e-10 -2.94765e-10 -6.33137e-11 -2.58885e-10 -5.07993e-10 -1.08795e-10 -1.50076e-10 -2.94766e-10 -6.3305e-11 -7.73091 5.47488 -0.417314 -1.50074e-10 -2.94766e-10 -6.33177e-11 -2.90554 0.965183 -0.102902 -1.50075e-10 -2.94766e-10 -6.33149e-11 -10.2786 0.731801 -0.0259123 -1.50068e-10 -2.94765e-10 -6.33223e-11 -2.22167 -0.733487 0.20892 -2.03217e-16 0.0 -3.88251e-19 -4.76772 -28.1884 11.8106 -0.129694 25.2398 0.264939 -0.498896 3.96914 19.1797 2.03217e-16 0.0 3.88251e-19 -8.14996 -7.39754 -8.98723 0.192915 30.7689 -0.448398 -3.66225 -11.1284 -14.8057
-46.9838 85.1727 19.9287 1.537 17.0903 0.869 -1.67445 7.44275 -3.62331 4.58907 -3.37302 -0.89758 -10.1098 -1.80581 -3.99339 9.19477 2.05012 -4.8855 -0.0 0.0 0.0 -0.0 0.0 0.0 2.02936e-14 3.17784e-15 -8.73659e-14 79.9566 11.3938 1.59184 -14.2421 -7.15146 26.0425 -0.0665209 7.33917 1.03719 1.179e-09 -1.81035e-09 -6.65945e-10 2.03515e-09 -3.12589e-09 -1.16252e-09 1.17901e-09 -1.81036e-09 -6.65951e-10 7.73091 5.47488 0.417314 1.17901e-09 -1.81037e-09 -6.65941e-10 2.90554 0.965183 0.102902 1.179e-09 -1.81037e-09 -6.65942e-10 10.2786 0.731801 0.0259123 1.17899e-09 -1.81036e-09 -6.65929e-10 2.22167 -0.733487 -0.20892 2.02598e-14 3.18269e-15 -8.75149e-14 -79.7571 29.1471 -7.79688 17.2667 -9.91943 -32.395 0.000838026 0.826576 -0.116176 9.4619e-10 1.94747e-09 1.44404e-10 1.63826e-09 3.37127e-09 2.48121e-10 9.4619e-10 1.94746e-09 1.44413e-10 -7.73091 5.47488 -0.417314 9.46191e-10 1.94747e-09 1.44404e-10 -2.90554 0.965183 -0.102902 9.46186e-10 1.94747e-09 1.44407e-10 -10.2786 0.731801 -0.0259123 9.46195e-10 1.94747e-09 1.44404e-10 -2.22167 -0.733487 0.20892 -2.03217e-16 0.0 -3.88251e-19 -4.7132 -27.1758 11.9534 -0.13844 26.1769 0.277314 -0.354815 3.61184 19.1249 2.03217e-16 0.0 3.88251e-19 -7.86403 -7.75617 -9.47603 0.217347 32.501 -0.47712 -3.7035 -10.1968 -15.758
